<svg xmlns="http://www.w3.org/2000/svg" viewBox="0 0 660 164" width="660" height="164">
<defs><linearGradient id="bga" x1="0" y1="0" x2="1" y2="1">
<stop offset="0" stop-color="#0a0014"/><stop offset="1" stop-color="#1a0a2e"/>
</linearGradient></defs>
<rect x="1" y="1" width="658" height="162" rx="10" fill="url(#bga)" stroke="#00fff9" stroke-width="1.5" opacity="0.95"/>
<rect x="1" y="1" width="658" height="34" rx="10" fill="#00fff9" opacity="0.12"/>
<line x1="1" y1="35" x2="659" y2="35" stroke="#00fff9" stroke-width="1" opacity="0.5"/>
<circle cx="20" cy="18" r="5" fill="#ff00c8"/>
<circle cx="38" cy="18" r="5" fill="#00fff9" opacity="0.8"/>
<circle cx="56" cy="18" r="5" fill="#ff00c8" opacity="0.5"/>
<text x="330.0" y="23" font-family="Menlo, Consolas, monospace" font-size="13" font-weight="bold" fill="#ff00c8" text-anchor="middle" letter-spacing="2">ARSENAL.SH --list</text>
<rect x="24.0" y="56.0" width="84.0" height="34" rx="17" fill="none" stroke="#ff00c8" stroke-width="1.6"/>
<text x="66.0" y="78.0" font-family="Menlo, Consolas, monospace" font-size="13.5" font-weight="bold" fill="#ff00c8" text-anchor="middle">PYTHON</text>
<rect x="122.0" y="56.0" width="116.0" height="34" rx="17" fill="none" stroke="#00fff9" stroke-width="1.6"/>
<text x="180.0" y="78.0" font-family="Menlo, Consolas, monospace" font-size="13.5" font-weight="bold" fill="#00fff9" text-anchor="middle">JAVASCRIPT</text>
<rect x="252.0" y="56.0" width="68.0" height="34" rx="17" fill="none" stroke="#ff00c8" stroke-width="1.6"/>
<text x="286.0" y="78.0" font-family="Menlo, Consolas, monospace" font-size="13.5" font-weight="bold" fill="#ff00c8" text-anchor="middle">JAVA</text>
<rect x="334.0" y="56.0" width="68.0" height="34" rx="17" fill="none" stroke="#00fff9" stroke-width="1.6"/>
<text x="368.0" y="78.0" font-family="Menlo, Consolas, monospace" font-size="13.5" font-weight="bold" fill="#00fff9" text-anchor="middle">BASH</text>
<rect x="416.0" y="56.0" width="116.0" height="34" rx="17" fill="none" stroke="#ff00c8" stroke-width="1.6"/>
<text x="474.0" y="78.0" font-family="Menlo, Consolas, monospace" font-size="13.5" font-weight="bold" fill="#ff00c8" text-anchor="middle">KALI LINUX</text>
<rect x="24.0" y="106.0" width="116.0" height="34" rx="17" fill="none" stroke="#00fff9" stroke-width="1.6"/>
<text x="82.0" y="128.0" font-family="Menlo, Consolas, monospace" font-size="13.5" font-weight="bold" fill="#00fff9" text-anchor="middle">BURP SUITE</text>
<rect x="154.0" y="106.0" width="108.0" height="34" rx="17" fill="none" stroke="#ff00c8" stroke-width="1.6"/>
<text x="208.0" y="128.0" font-family="Menlo, Consolas, monospace" font-size="13.5" font-weight="bold" fill="#ff00c8" text-anchor="middle">WIRESHARK</text>
<rect x="276.0" y="106.0" width="132.0" height="34" rx="17" fill="none" stroke="#00fff9" stroke-width="1.6"/>
<text x="342.0" y="128.0" font-family="Menlo, Consolas, monospace" font-size="13.5" font-weight="bold" fill="#00fff9" text-anchor="middle">RASPBERRY PI</text>
</svg>