<svg xmlns="http://www.w3.org/2000/svg" viewBox="0 0 620 300" width="620" height="300">
<defs>
<linearGradient id="bg2" x1="0" y1="0" x2="1" y2="1">
<stop offset="0" stop-color="#0a0014"/>
<stop offset="1" stop-color="#1a0a2e"/>
</linearGradient>
<radialGradient id="cheekglow" cx="50%" cy="50%" r="50%">
<stop offset="0%" stop-color="#ff3b30"/>
<stop offset="100%" stop-color="#ff3b30" stop-opacity="0"/>
</radialGradient>
</defs>
<rect x="1" y="1" width="618" height="298" rx="12" fill="url(#bg2)" stroke="#00fff9" stroke-width="1.5" opacity="0.97"/>
<g transform="translate(140,155)">
<path d="M -20,-40 C -55,-120 -95,-150 -108,-160 C -100,-115 -78,-70 -48,-38 Z" fill="#FFD53E"/>
<path d="M -108,-160 C -103,-140 -95,-118 -84,-100 L -70,-108 C -84,-128 -96,-146 -104,-162 Z" fill="#111015"/>
<path d="M 20,-40 C 55,-120 95,-150 108,-160 C 100,-115 78,-70 48,-38 Z" fill="#FFD53E"/>
<path d="M 108,-160 C 103,-140 95,-118 84,-100 L 70,-108 C 84,-128 96,-146 104,-162 Z" fill="#111015"/>
<ellipse cx="0" cy="0" rx="98" ry="88" fill="#FFD53E"/>
<circle cx="-72" cy="18" r="30" fill="url(#cheekglow)"/>
<circle cx="72" cy="18" r="30" fill="url(#cheekglow)"/>
<circle cx="-72" cy="18" r="17" fill="#FF3B30"/>
<circle cx="72" cy="18" r="17" fill="#FF3B30"/>
<ellipse cx="-34" cy="-8" rx="13" ry="17" fill="#111015"/>
<ellipse cx="34" cy="-8" rx="13" ry="17" fill="#111015"/>
<circle cx="-30" cy="-14" r="4" fill="#ffffff"/>
<circle cx="38" cy="-14" r="4" fill="#ffffff"/>
<ellipse cx="0" cy="14" rx="4" ry="3" fill="#111015"/>
<path d="M -14,26 Q 0,38 14,26" stroke="#111015" stroke-width="3.2" fill="none" stroke-linecap="round"/>
<path d="M -46,-32 Q -34,-40 -22,-34" stroke="#e0b400" stroke-width="4" fill="none" stroke-linecap="round"/>
<path d="M 46,-32 Q 34,-40 22,-34" stroke="#e0b400" stroke-width="4" fill="none" stroke-linecap="round"/>
</g>
<text x="300" y="118" font-family="Menlo, Consolas, monospace" font-size="21" font-weight="bold" fill="#00fff9">"The quieter you became,</text>
<text x="300" y="148" font-family="Menlo, Consolas, monospace" font-size="21" font-weight="bold" fill="#00fff9"> the more you are able</text>
<text x="300" y="178" font-family="Menlo, Consolas, monospace" font-size="21" font-weight="bold" fill="#00fff9"> to hear."</text>
<line x1="300" y1="200" x2="590" y2="200" stroke="#ff00c8" stroke-width="1" opacity="0.5"/>
<text x="300" y="226" font-family="Menlo, Consolas, monospace" font-size="13" fill="#ff00c8" opacity="0.85">— signal picked up on a quiet channel</text>
</svg>